<svg xmlns="http://www.w3.org/2000/svg" viewBox="0 0 350 350"><rect fill="#6055AA" width="350" height="350" rx="25"/><path fill="#fff" d="M63.3 312.3c-5.6 0-11-.9-16-2.6-5.1-1.8-9.5-4.2-13.3-7.4-3.8-3.2-6.5-6.8-8.3-10.9-.9-1.8-.9-3.5.1-5.1s2.5-2.6 4.7-3c1.6-.3 3.1-.1 4.7.7 1.5.8 2.7 2.1 3.5 3.7 1.1 2.2 2.8 4.2 5.2 6 2.4 1.8 5.3 3.3 8.7 4.5 3.4 1.1 7 1.7 10.8 1.7 4.2 0 8.1-.7 11.6-2s6.4-3.2 8.6-5.7c2.2-2.5 3.3-5.6 3.3-9.3 0-4.6-1.8-8.8-5.5-12.5-3.6-3.7-9.6-6-17.9-6.8-10.9-1.1-19.4-4.2-25.6-9.6-6.2-5.3-9.3-12-9.3-19.8 0-5.8 1.6-10.7 4.9-14.7 3.2-4 7.6-7.1 13.2-9.2 5.6-2.1 11.8-3.2 18.6-3.2 5.3 0 10 .7 14 2.2 4 1.5 7.5 3.5 10.4 6.2 3 2.6 5.6 5.7 7.8 9.3 1.2 1.9 1.7 3.7 1.5 5.5-.2 1.7-1.1 3-2.6 4-1.7 1.1-3.5 1.3-5.4.7-1.9-.6-3.4-1.8-4.3-3.4-1.4-2.5-3.1-4.7-5.1-6.4-2-1.8-4.4-3.1-7.1-4.1-2.7-1-5.9-1.5-9.6-1.5-6.5-.1-11.9 1.1-16.3 3.6s-6.6 6.3-6.6 11.5c0 2.6.7 5.1 2 7.6 1.4 2.4 3.9 4.5 7.5 6.2 3.6 1.8 8.9 3 15.7 3.7 10.4 1.1 18.6 4.2 24.4 9.5 5.8 5.3 8.7 12.3 8.7 21 0 5-1 9.3-3.1 13-2.1 3.7-4.8 6.8-8.3 9.3-3.5 2.5-7.4 4.4-11.8 5.6-4.5 1.1-9.1 1.7-13.8 1.7zm105.3 0c-7.7 0-14.8-1.3-21.2-3.9-6.4-2.6-11.9-6.2-16.5-10.9s-8.2-10.3-10.7-16.7c-2.5-6.4-3.8-13.5-3.8-21.2 0-7.7 1.3-14.8 3.8-21.2 2.5-6.4 6.1-11.9 10.7-16.6 4.6-4.7 10.1-8.3 16.5-10.9 6.4-2.6 13.5-3.9 21.2-3.9 7.7 0 14.7 1.3 21.1 3.9 6.4 2.6 11.9 6.2 16.5 10.9s8.2 10.2 10.8 16.6c2.5 6.4 3.8 13.5 3.8 21.2 0 7.7-1.3 14.8-3.8 21.2-2.5 6.4-6.1 12-10.8 16.7-4.6 4.7-10.1 8.3-16.5 10.9-6.4 2.6-13.4 3.9-21.1 3.9zm0-12.3c5.7 0 10.9-1 15.7-3.1 4.8-2.1 8.9-4.9 12.4-8.5 3.5-3.6 6.2-7.9 8.1-12.8 1.9-4.9 2.8-10.2 2.8-15.9 0-5.7-.9-11-2.8-15.9s-4.6-9.2-8.1-12.8c-3.5-3.6-7.6-6.5-12.4-8.5-4.8-2-10-3-15.7-3-5.7 0-10.9 1-15.7 3-4.8 2-8.9 4.8-12.4 8.5-3.5 3.6-6.2 7.9-8.1 12.8-1.9 4.9-2.9 10.2-2.9 15.9 0 5.7 1 11 2.9 15.9s4.6 9.2 8.1 12.8c3.5 3.6 7.6 6.5 12.4 8.5 4.7 2 10 3.1 15.7 3.1zm80.3 11c-1.9 0-3.5-.7-4.8-2-1.3-1.3-1.9-2.9-1.9-4.9v-89c0-2 .6-3.7 1.9-4.9 1.3-1.3 2.9-1.9 4.8-1.9 2.1 0 3.9.8 5.3 2.5l57.3 76.2v-71.9c0-2 .7-3.7 2-4.9 1.3-1.3 2.9-1.9 4.9-1.9 2 0 3.6.6 4.9 1.9 1.2 1.3 1.8 2.9 1.8 4.9v89c0 1.9-.6 3.5-1.8 4.9-1.2 1.3-2.8 2-4.9 2-.9 0-1.8-.2-2.8-.6-1-.4-1.8-1-2.4-1.8l-57.3-76.2v71.8c0 1.9-.6 3.5-1.9 4.9-1.5 1.3-3.1 1.9-5.1 1.9zM181.8 103.6c.4-4.1 1.5-7.8 3.2-11.1 2.3-4.5 5.5-8.1 9.5-10.6 4-2.6 8.6-3.9 13.7-3.9 5.4 0 10.1 1.3 14.1 3.9 4 2.6 7.1 6.1 9.3 10.6 1.6 3.3 2.6 7 2.9 11.1h-52.7zM325 37.7v140.7H25V37.7h300zM154.4 102c0-6.2-1.2-11.7-3.6-16.5-2.4-4.8-5.7-8.5-9.8-11.2-4.2-2.7-9-4.1-14.5-4.1-5.4 0-10.3 1.3-14.6 3.9-4.3 2.6-7.7 6.1-10.2 10.7-2.4-4.4-5.5-7.9-9.4-10.5-4.2-2.7-9-4.1-14.5-4.1-5.1 0-9.8 1.3-13.9 3.8-2.8 1.7-5.3 3.9-7.3 6.5v-5.3c0-1.3-.4-2.3-1.1-3-.7-.7-1.7-1.1-3-1.1-1.2 0-2.1.4-2.9 1.1-.8.7-1.2 1.7-1.2 3v65.9c0 1.2.4 2.1 1.2 2.9.8.8 1.7 1.2 2.9 1.2 1.3 0 2.3-.4 3-1.2.7-.8 1.1-1.7 1.1-2.9V99.7c0-6.3 2-11.5 6-15.4 4-4 9.1-6 15.3-6 5.9 0 10.6 2.2 14.3 6.6 3.7 4.4 5.5 10.1 5.5 17.1v39.1c0 1.2.4 2.1 1.2 2.9.8.8 1.7 1.2 2.9 1.2 1.3 0 2.3-.4 3-1.2.7-.8 1.1-1.7 1.1-2.9v-40c-.2-6.9 1.7-12.5 5.6-16.6 3.9-4.1 9-6.2 15.2-6.2 5.9 0 10.6 2.2 14.3 6.6 3.7 4.4 5.5 10.1 5.5 17.1v39.1c0 1.2.4 2.1 1.2 2.9.8.8 1.7 1.2 2.9 1.2 1.3 0 2.3-.4 3-1.2.7-.8 1.1-1.7 1.1-2.9V102zm87.9 4.8c0-7.1-1.4-13.4-4.3-18.9-2.9-5.5-6.9-9.7-12.1-12.9-5.1-3.1-11.1-4.7-17.7-4.7-6.8 0-12.8 1.6-18 4.9-5.2 3.2-9.3 7.7-12.3 13.3-3 5.6-4.5 12.2-4.5 19.6 0 7.3 1.6 13.8 4.7 19.5 3.2 5.7 7.5 10.1 13.1 13.3 5.6 3.2 11.9 4.8 19 4.8 4.2 0 8.7-.9 13.3-2.6 4.6-1.7 8.4-3.9 11.3-6.5.9-.8 1.3-1.7 1.3-2.7 0-1-.6-1.9-1.6-2.7-.7-.6-1.6-.9-2.6-.9s-1.9.4-2.6 1.2c-2.1 2-4.9 3.6-8.5 4.8-3.6 1.2-7.1 1.8-10.6 1.8-5.6 0-10.6-1.3-14.9-3.9-4.3-2.6-7.7-6.1-10.2-10.6-2.1-3.9-3.3-8.3-3.6-13.1h56.8c1.2 0 2.1-.3 2.8-1 .8-.6 1.2-1.5 1.2-2.7zm57-35.3c-1.9-.8-4.6-1.2-8-1.2-5.1 0-9.7 1.3-13.8 3.8-3.8 2.3-7 5.5-9.5 9.5v-8.4c0-1.3-.4-2.3-1.1-3-.7-.7-1.7-1.1-3-1.1-1.2 0-2.1.4-2.9 1.1-.8.7-1.2 1.7-1.2 3v65.9c0 1.2.4 2.1 1.2 2.9.8.8 1.7 1.2 2.9 1.2 1.3 0 2.3-.4 3-1.2.7-.8 1.1-1.7 1.1-2.9V99.9c0-4.2 1-8 3-11.3 2-3.3 4.7-5.9 8.3-7.8 3.5-1.9 7.5-2.8 12.1-2.8 1.7 0 3.3.1 4.7.3 1.4.2 2.6.2 3.6-.1 1-.3 1.6-1.1 1.9-2.4.3-2-.4-3.5-2.3-4.3z"/></svg>